<svg version="1.2" baseProfile="tiny-ps" xmlns="http://www.w3.org/2000/svg" viewBox="0 0 480 480" width="480" height="480">
	<title>calculator-svg</title>
	<style>
		tspan { white-space:pre }
		.shp0 { fill: #0071b3 } 
	</style>
	<g id="Layer">
		<g id="Layer">
			<path id="Layer" fill-rule="evenodd" class="shp0" d="M432 40L432 440C431.97 462.08 414.08 479.97 392 480L88 480C65.92 479.97 48.03 462.08 48 440L48 40C48.03 17.92 65.92 0.03 88 0L392 0C414.08 0.03 431.97 17.92 432 40ZM416 40C416 26.74 405.25 16 392 16L336 16L336 32L392 32C396.42 32 400 35.58 400 40L400 136C400 140.42 396.42 144 392 144L88 144C83.58 144 80 140.42 80 136L80 40C80 35.58 83.58 32 88 32L144 32L144 16L88 16C74.75 16 64 26.74 64 40L64 440C64 453.25 74.75 464 88 464L392 464C405.25 464 416 453.25 416 440L416 40ZM96 48L96 128L384 128L384 48L96 48ZM160 32L320 32L320 16L160 16L160 32Z" />
		</g>
	</g>
	<g id="Layer">
		<g id="Layer">
			<path id="Layer" fill-rule="evenodd" class="shp0" d="M280 200C280 222.09 262.09 240 240 240C217.92 239.97 200.03 222.08 200 200C200 177.91 217.91 160 240 160C262.09 160 280 177.91 280 200ZM264 200C264 186.75 253.25 176 240 176C226.75 176 216 186.75 216 200C216 213.25 226.75 224 240 224C253.25 224 264 213.25 264 200Z" />
		</g>
	</g>
	<g id="Layer">
		<g id="Layer">
			<path id="Layer" fill-rule="evenodd" class="shp0" d="M384 200C384 222.09 366.09 240 344 240C321.92 239.97 304.03 222.08 304 200C304 177.91 321.91 160 344 160C366.09 160 384 177.91 384 200ZM368 200C368 186.75 357.25 176 344 176C330.75 176 320 186.75 320 200C320 213.25 330.75 224 344 224C357.25 224 368 213.25 368 200Z" />
		</g>
	</g>
	<g id="Layer">
		<g id="Layer">
			<path id="Layer" fill-rule="evenodd" class="shp0" d="M176 200C176 222.09 158.09 240 136 240C113.92 239.97 96.03 222.08 96 200C96 177.91 113.91 160 136 160C158.09 160 176 177.91 176 200ZM160 200C160 186.75 149.25 176 136 176C122.75 176 112 186.75 112 200C112 213.25 122.75 224 136 224C149.25 224 160 213.25 160 200Z" />
		</g>
	</g>
	<g id="Layer">
		<g id="Layer">
			<path id="Layer" fill-rule="evenodd" class="shp0" d="M280 296C280 318.09 262.09 336 240 336C217.92 335.97 200.03 318.08 200 296C200 273.91 217.91 256 240 256C262.09 256 280 273.91 280 296ZM264 296C264 282.75 253.25 272 240 272C226.75 272 216 282.75 216 296C216 309.25 226.75 320 240 320C253.25 320 264 309.25 264 296Z" />
		</g>
	</g>
	<g id="Layer">
		<g id="Layer">
			<path id="Layer" fill-rule="evenodd" class="shp0" d="M384 296C384 318.09 366.09 336 344 336C321.92 335.97 304.03 318.08 304 296C304 273.91 321.91 256 344 256C366.09 256 384 273.91 384 296ZM368 296C368 282.75 357.25 272 344 272C330.75 272 320 282.75 320 296C320 309.25 330.75 320 344 320C357.25 320 368 309.25 368 296Z" />
		</g>
	</g>
	<g id="Layer">
		<g id="Layer">
			<path id="Layer" fill-rule="evenodd" class="shp0" d="M176 296C176 318.09 158.09 336 136 336C113.92 335.97 96.03 318.08 96 296C96 273.91 113.91 256 136 256C158.09 256 176 273.91 176 296ZM160 296C160 282.75 149.25 272 136 272C122.75 272 112 282.75 112 296C112 309.25 122.75 320 136 320C149.25 320 160 309.25 160 296Z" />
		</g>
	</g>
	<g id="Layer">
		<g id="Layer">
			<path id="Layer" fill-rule="evenodd" class="shp0" d="M280 392C280 414.09 262.09 432 240 432C217.92 431.97 200.03 414.08 200 392C200 369.91 217.91 352 240 352C262.09 352 280 369.91 280 392ZM264 392C264 378.75 253.25 368 240 368C226.75 368 216 378.75 216 392C216 405.25 226.75 416 240 416C253.25 416 264 405.25 264 392Z" />
		</g>
	</g>
	<g id="Layer">
		<g id="Layer">
			<path id="Layer" fill-rule="evenodd" class="shp0" d="M176 392C176 414.09 158.09 432 136 432C113.92 431.97 96.03 414.08 96 392C96 369.91 113.91 352 136 352C158.09 352 176 369.91 176 392ZM160 392C160 378.75 149.25 368 136 368C122.75 368 112 378.75 112 392C112 405.25 122.75 416 136 416C149.25 416 160 405.25 160 392Z" />
		</g>
	</g>
	<g id="Layer">
		<g id="Layer">
			<path id="Layer" fill-rule="evenodd" class="shp0" d="M384 360L384 440C384 444.42 380.42 448 376 448L312 448C307.58 448 304 444.42 304 440L304 360C304 355.58 307.58 352 312 352L376 352C380.42 352 384 355.58 384 360ZM368 368L320 368L320 432L368 432L368 368Z" />
		</g>
	</g>
	<g id="Layer">
		<g id="Layer">
			<path id="Layer" class="shp0" d="M320 96L336 96L336 112L320 112L320 96Z" />
		</g>
	</g>
	<g id="Layer">
		<g id="Layer">
			<path id="Layer" class="shp0" d="M352 96L368 96L368 112L352 112L352 96Z" />
		</g>
	</g>
	<g id="Layer">
		<g id="Layer">
			<path id="Layer" class="shp0" d="M144 80L144 64L128 64L128 80L112 80L112 96L128 96L128 112L144 112L144 96L160 96L160 80L144 80Z" />
		</g>
	</g>
	<g id="Layer">
		<g id="Layer">
			<path id="Layer" class="shp0" d="M352 408L344 408C339.58 408 336 411.58 336 416C336 420.42 339.58 424 344 424L352 424C356.42 424 360 420.42 360 416C360 411.58 356.42 408 352 408Z" />
		</g>
	</g>
	<g id="Layer">
	</g>
	<g id="Layer">
	</g>
	<g id="Layer">
	</g>
	<g id="Layer">
	</g>
	<g id="Layer">
	</g>
	<g id="Layer">
	</g>
	<g id="Layer">
	</g>
	<g id="Layer">
	</g>
	<g id="Layer">
	</g>
	<g id="Layer">
	</g>
	<g id="Layer">
	</g>
	<g id="Layer">
	</g>
	<g id="Layer">
	</g>
	<g id="Layer">
	</g>
	<g id="Layer">
	</g>
</svg>