<svg>
  <symbol xmlns="http://www.w3.org/2000/svg" viewBox="0 0 30.051 30.051" id="play">
    <path d="M19.982 14.438l-6.24-4.536a.752.752 0 00-1.195.607v9.069a.75.75 0 001.195.606l6.24-4.532a.747.747 0 000-1.214z"></path>
    <path d="M15.026.002C6.726.002 0 6.728 0 15.028c0 8.297 6.726 15.021 15.026 15.021 8.298 0 15.025-6.725 15.025-15.021.001-8.3-6.727-15.026-15.025-15.026zm0 27.54c-6.912 0-12.516-5.601-12.516-12.514 0-6.91 5.604-12.518 12.516-12.518 6.911 0 12.514 5.607 12.514 12.518.001 6.913-5.603 12.514-12.514 12.514z"></path>
  </symbol>
  <symbol xmlns="http://www.w3.org/2000/svg" viewBox="0 0 513.64 513.64" id="phone-call">
    <path d="M499.66 376.96l-71.68-71.68c-25.6-25.6-69.12-15.359-79.36 17.92-7.68 23.041-33.28 35.841-56.32 30.72-51.2-12.8-120.32-79.36-133.12-133.12-7.68-23.041 7.68-48.641 30.72-56.32 33.28-10.24 43.52-53.76 17.92-79.36l-71.68-71.68c-20.48-17.92-51.2-17.92-69.12 0L18.38 62.08c-48.64 51.2 5.12 186.88 125.44 307.2s256 176.641 307.2 125.44l48.64-48.64c17.921-20.48 17.921-51.2 0-69.12z"></path>
  </symbol>
  <symbol xmlns="http://www.w3.org/2000/svg" viewBox="0 0 24 24" id="whatsapp">
    <path d="M20.52 3.449C18.24 1.245 15.24 0 12.045 0 2.875 0-2.883 9.935 1.696 17.838L0 24l6.335-1.652c2.76 1.491 5.021 1.359 5.716 1.447 10.633 0 15.926-12.864 8.454-20.307z" fill="#eceff1"></path>
    <path d="M12.067 21.751l-.006-.001h-.016c-3.182 0-5.215-1.507-5.415-1.594l-3.75.975 1.005-3.645-.239-.375a9.869 9.869 0 01-1.516-5.26c0-8.793 10.745-13.19 16.963-6.975 6.203 6.15 1.848 16.875-7.026 16.875z" fill="#4caf50"></path>
    <path d="M17.507 14.307l-.009.075c-.301-.15-1.767-.867-2.04-.966-.613-.227-.44-.036-1.617 1.312-.175.195-.349.21-.646.075-.3-.15-1.263-.465-2.403-1.485-.888-.795-1.484-1.77-1.66-2.07-.293-.506.32-.578.878-1.634.1-.21.049-.375-.025-.524-.075-.15-.672-1.62-.922-2.206-.24-.584-.487-.51-.672-.51-.576-.05-.997-.042-1.368.344-1.614 1.774-1.207 3.604.174 5.55 2.714 3.552 4.16 4.206 6.804 5.114.714.227 1.365.195 1.88.121.574-.091 1.767-.721 2.016-1.426.255-.705.255-1.29.18-1.425-.074-.135-.27-.21-.57-.345z" fill="#fafafa"></path>
  </symbol>
  <symbol xmlns="http://www.w3.org/2000/svg" viewBox="0 0 512 512" id="viber">
    <circle cx="256" cy="256" r="256" fill="#6f3faa"></circle>
    <path d="M367.061 140.443c-62.312-15.05-124.735-32.654-188.637-10.288-41.374 15.515-41.374 60.337-39.65 98.263 0 10.343-12.067 24.135-6.896 36.202 10.343 34.478 18.963 68.956 55.165 86.195 5.172 3.448 0 10.343 3.448 15.515-1.724 0-5.172 1.724-5.172 3.448 0 8.263 3.708 20.902 1.245 29.05l110.006 109.96c113.09-18.01 201.478-110.068 213.914-224.921L367.061 140.443z" fill="#512d84"></path>
    <g fill="#fff">
      <path d="M391.427 179.924l-.084-.338c-6.84-27.653-37.678-57.325-65.998-63.498l-.319-.066c-45.806-8.738-92.251-8.738-138.047 0l-.329.066c-28.31 6.173-59.149 35.847-65.998 63.498l-.076.338c-8.456 38.617-8.456 77.781 0 116.398l.076.338c6.558 26.472 35.099 54.782 62.362 62.567v30.868c0 11.173 13.615 16.66 21.357 8.597l31.275-32.509c6.784.379 13.571.591 20.356.591 23.057 0 46.125-2.181 69.023-6.549l.319-.066c28.32-6.173 59.158-35.847 65.998-63.498l.084-.338c8.456-38.618 8.456-77.78.001-116.399zm-24.751 110.799c-4.567 18.041-27.981 40.469-46.585 44.613-24.355 4.632-48.904 6.611-73.428 5.932a1.732 1.732 0 00-1.296.526c-3.481 3.572-22.835 23.442-22.835 23.442l-24.288 24.928c-1.776 1.852-4.896.591-4.896-1.964v-51.136c0-.845-.603-1.562-1.433-1.726l-.014-.003c-18.604-4.144-42.01-26.572-46.585-44.613-7.611-34.906-7.611-70.292 0-105.198 4.575-18.041 27.981-40.469 46.585-44.613 42.536-8.09 85.664-8.09 128.191 0 18.613 4.144 42.018 26.572 46.585 44.613 7.619 34.907 7.619 70.293-.001 105.199z"></path>
      <path d="M296.47 314.327c-2.86-.869-5.585-1.452-8.118-2.501-26.231-10.883-50.371-24.923-69.492-46.444-10.874-12.238-19.385-26.055-26.579-40.677-3.412-6.934-6.287-14.139-9.218-21.299-2.672-6.528 1.264-13.272 5.408-18.192 3.889-4.617 8.894-8.149 14.314-10.754 4.23-2.032 8.402-.86 11.492 2.725 6.678 7.752 12.814 15.9 17.78 24.886 3.055 5.527 2.217 12.283-3.32 16.044-1.346.914-2.572 1.988-3.825 3.02-1.1.905-2.134 1.819-2.888 3.044-1.377 2.241-1.443 4.886-.557 7.323 6.827 18.761 18.334 33.351 37.219 41.21 3.022 1.257 6.056 2.72 9.538 2.315 5.83-.681 7.718-7.077 11.804-10.418 3.993-3.265 9.097-3.308 13.398-.586 4.303 2.724 8.473 5.646 12.619 8.601 4.07 2.9 8.121 5.735 11.874 9.042 3.61 3.179 4.853 7.349 2.82 11.662-3.72 7.901-9.135 14.472-16.944 18.668-2.205 1.182-4.839 1.565-7.325 2.331-2.86-.869 2.486-.766 0 0zm-40.399-148.901c34.309.962 62.49 23.731 68.529 57.651 1.029 5.78 1.395 11.688 1.853 17.555.193 2.467-1.205 4.811-3.867 4.844-2.75.033-3.987-2.269-4.167-4.734-.353-4.882-.598-9.787-1.271-14.627-3.551-25.559-23.931-46.704-49.371-51.241-3.829-.683-7.745-.862-11.624-1.269-2.451-.257-5.661-.405-6.204-3.453-.455-2.555 1.701-4.589 4.134-4.72.659-.039 1.324-.008 1.988-.006 34.311.962-.664-.002 0 0z"></path>
      <path d="M308.212 233.019c-.057.429-.086 1.436-.338 2.384-.91 3.444-6.134 3.875-7.335.4-.357-1.031-.41-2.205-.412-3.315-.012-7.266-1.591-14.526-5.256-20.849-3.767-6.499-9.523-11.96-16.272-15.267-4.082-1.998-8.495-3.241-12.969-3.98-1.955-.324-3.931-.519-5.896-.793-2.381-.331-3.653-1.848-3.539-4.194.105-2.198 1.712-3.781 4.108-3.644 7.873.446 15.479 2.15 22.48 5.856 14.234 7.539 22.366 19.437 24.74 35.326.107.721.279 1.433.334 2.155.134 1.782.219 3.567.355 5.921-.057.427-.136-2.354 0 0z"></path>
      <path d="M286.872 232.188c-2.87.052-4.406-1.538-4.703-4.168-.205-1.834-.369-3.694-.807-5.48-.862-3.517-2.731-6.775-5.689-8.93-1.396-1.017-2.979-1.758-4.636-2.238-2.105-.609-4.293-.441-6.392-.955-2.281-.559-3.543-2.407-3.184-4.546.326-1.948 2.22-3.468 4.349-3.313 13.302.96 22.809 7.837 24.166 23.497.097 1.105.209 2.272-.036 3.331-.422 1.807-1.762 2.714-3.068 2.802-2.871.051 1.306-.088 0 0z"></path>
    </g>
    <path d="M391.427 179.924l-.084-.338c-3.834-15.501-15.212-31.635-29.458-43.911l-19.259 17.068c11.452 9.125 21.264 21.766 24.052 32.78 7.62 34.907 7.62 70.292 0 105.2-4.567 18.041-27.982 40.469-46.585 44.613-24.355 4.632-48.904 6.611-73.428 5.932a1.732 1.732 0 00-1.296.526c-3.481 3.572-22.835 23.442-22.835 23.442l-24.288 24.928c-1.776 1.852-4.896.593-4.896-1.964v-51.136c0-.845-.603-1.562-1.433-1.726l-.014-.002c-10.573-2.355-22.692-10.618-32.028-20.621l-19.03 16.863c11.885 12.929 27.214 23.381 42.168 27.651v30.868c0 11.173 13.615 16.66 21.357 8.597l31.275-32.509c6.784.379 13.569.591 20.356.591 23.057 0 46.125-2.181 69.023-6.549l.319-.065c28.32-6.173 59.158-35.845 65.998-63.498l.084-.338c8.457-38.621 8.457-77.783.002-116.402z" fill="#d1d1d1"></path>
    <path d="M296.47 314.327c2.486-.766-2.86-.869 0 0z" fill="#fff"></path>
    <path d="M317.921 281.664c-3.753-3.305-7.806-6.142-11.874-9.042-4.146-2.955-8.316-5.877-12.619-8.601-4.301-2.722-9.404-2.679-13.398.586-4.086 3.341-5.973 9.737-11.804 10.418-3.481.405-6.516-1.059-9.538-2.315-11.619-4.834-20.435-12.226-27.098-21.559l-14.16 12.55c.481.557.94 1.129 1.429 1.679 19.122 21.521 43.263 35.561 69.492 46.444 2.531 1.05 5.258 1.634 8.118 2.501-2.86-.869 2.488-.765 0 0 2.488-.765 5.12-1.15 7.327-2.332 7.811-4.196 13.224-10.768 16.944-18.668 2.034-4.312.791-8.482-2.819-11.661z" fill="#d1d1d1"></path>
    <path d="M256.159 165.431c-.029 0-.057-.003-.086-.003-.028-.002.008 0 .086.003zm-.087-.005c.029 0 .057.003.086.003 1.904.068 32.872.921-.086-.003z" fill="#fff"></path>
    <path d="M305.285 185.837l-6.037 5.351c9.487 9.23 16.029 21.463 17.899 34.925.672 4.842.919 9.745 1.272 14.627.179 2.467 1.415 4.768 4.167 4.736 2.663-.033 4.06-2.376 3.867-4.844-.459-5.866-.824-11.776-1.853-17.555-2.643-14.848-9.53-27.559-19.315-37.24zm2.236 39.102c-1.729-11.578-6.532-21.026-14.51-28.224l-6.02 5.335c3.113 2.763 5.806 6.008 7.88 9.587 3.665 6.323 5.244 13.583 5.256 20.849.002 1.11.055 2.284.412 3.317 1.203 3.477 6.425 3.046 7.335-.4.252-.95.281-1.957.338-2.384-.057.429-.138-2.353 0 0-.138-2.353-.222-4.139-.357-5.923-.053-.725-.226-1.437-.334-2.157z" fill="#d1d1d1"></path>
    <g fill="#fff">
      <path d="M308.212 233.019c-.136-2.354-.057.427 0 0zm-21.34-.831c.045-.003.088-.026.131-.031-.121 0-.307.003-.498.01.124.003.237.022.367.021z"></path>
      <path d="M286.872 232.188c-.129.002-.243-.017-.367-.021-.621.017-1.262.05.367.021zm.131-.031c-.045.005-.088.028-.131.031.336-.023.307-.031.131-.031z"></path>
    </g>
    <path d="M280.814 207.525l-6.128 5.432c.338.205.669.419.99.652 2.958 2.155 4.827 5.413 5.689 8.93.438 1.786.6 3.644.807 5.48.283 2.513 1.71 4.058 4.336 4.148.191-.005.379-.009.498-.01 1.264-.14 2.531-1.026 2.936-2.774.245-1.057.133-2.226.036-3.331-.762-8.755-4.072-14.762-9.164-18.527z" fill="#d1d1d1"></path>
  </symbol>
  <symbol xmlns="http://www.w3.org/2000/svg" viewBox="0 0 512.05 512.05" id="messenger">
    <path d="M256.025.05C117.67-2.678 3.184 107.038.025 245.383a240.703 240.703 0 0085.333 182.613v73.387c0 5.891 4.776 10.667 10.667 10.667a10.67 10.67 0 005.653-1.621l59.456-37.141a264.142 264.142 0 0094.891 17.429c138.355 2.728 252.841-106.988 256-245.333C508.866 107.038 394.38-2.678 256.025.05z" fill="#2196f3"></path>
    <path d="M424.558 174.983a10.666 10.666 0 00-13.653-2.987l-110.933 60.48-69.013-59.179a10.666 10.666 0 00-14.485.555l-128 128c-4.153 4.178-4.133 10.932.046 15.085a10.666 10.666 0 0012.605 1.811l110.933-60.48 69.077 59.2a10.666 10.666 0 0014.485-.555l128-128a10.666 10.666 0 00.938-13.93z" fill="#fafafa"></path>
  </symbol>
  <symbol xmlns="http://www.w3.org/2000/svg" viewBox="0 0 48.1 53.1" id="order_user">
    <path d="M14.1 49.4C11 47 8.3 43.6 6.4 40c-.6-1.1-1.1-2.2-1.5-3.4h-.4c-1.4 0-2.6-.8-3.4-2-.6-1-1.1-2.5-1.1-4.1 0-1.6.5-3 1.2-4.1.2-.2.3-.4.4-.5v-8.1c0-4.9 2-9.3 5.2-12.6C10 2 14.4 0 19.3 0h9.5c4.9 0 9.3 2 12.6 5.2 3.2 3.2 5.2 7.7 5.2 12.6v8.1c.1.1.3.3.4.5.7 1.1 1.2 2.5 1.2 4.1 0 1.6-.4 3-1.2 4.1-.8 1.2-2 2-3.4 2h-.5c-.4 1.2-.9 2.3-1.4 3.4-1.8 3.6-4.6 7-7.7 9.4-6.4 5-13.5 5-19.9 0zm20.8-29.5c2.4.6 4.8 1.6 7 2.6v-4.7c0-3.6-1.5-6.9-3.9-9.3-2.4-2.4-5.6-3.8-9.3-3.8h-9.5c-3.6 0-6.9 1.4-9.2 3.8-2.4 2.4-3.9 5.7-3.9 9.3v4.7c2.2-1.1 4.6-2 7-2.6 7.2-2 14.7-2 21.8 0zm9.3 7.8l-5.3 6.9c-.5.6-1.3.7-1.9.3-8.9-5.3-17-5.3-25.9 0-.2.2-.5.3-.8.3-.5 0-.9-.3-1.1-.6L4 27.8h-.3c-.1.1-.2.2-.2.3-.4.6-.7 1.5-.7 2.5s.2 1.9.7 2.5c.3.5.7.8 1.1.8h.2c.1 0 .2-.1.2-.2.1-.1.3-.2.5-.2.7-.2 1.5.2 1.8 1 .4 1.5 1 3 1.7 4.4 1.6 3.2 4.1 6.3 6.9 8.4 5.3 4.2 11.1 4.2 16.4 0 2.8-2.2 5.3-5.3 7-8.4.7-1.4 1.3-2.8 1.7-4.4.3-.7 1-1.2 1.7-1 .2 0 .3.1.5.2l.2.2h.3c.4 0 .7-.3 1.1-.8.4-.6.7-1.5.7-2.5s-.3-1.9-.7-2.5c-.1-.1-.1-.2-.2-.3l-.4-.1zm-10-5.1c-6.6-1.8-13.6-1.8-20.2 0-2.8.8-5.5 1.8-8 3.2l4.7 6.1c9.1-5 17.7-5.1 26.8 0l4.7-6.1c-2.6-1.4-5.2-2.4-8-3.2z"></path>
  </symbol>
   <symbol xmlns="http://www.w3.org/2000/svg" viewBox="0 0 512 512" id="pin">
    <path d="M407.579 87.677C376.506 34.053 321.314 1.292 259.939.04c-2.62-.054-5.257-.054-7.878 0-61.374 1.252-116.566 34.013-147.64 87.637-31.762 54.812-32.631 120.652-2.325 176.123l126.963 232.387c.057.103.114.206.173.308 5.586 9.709 15.593 15.505 26.77 15.505 11.176 0 21.183-5.797 26.768-15.505.059-.102.116-.205.173-.308L409.906 263.8c30.304-55.471 29.435-121.311-2.327-176.123zM256 232c-39.701 0-72-32.299-72-72s32.299-72 72-72 72 32.299 72 72-32.298 72-72 72z"></path>
  </symbol>
  <symbol xmlns="http://www.w3.org/2000/svg" viewBox="0 0 480.001 480.001" id="cloud">
    <path d="M445.993 324.533l.952-.488 1-.568c.8-.464 1.6-.912 2.56-1.496a64.36 64.36 0 0029.408-52.4c.064-.531.093-1.065.088-1.6-.039-32.432-24.3-59.722-56.504-63.56-3.821-27.732-27.502-48.403-55.496-48.44-1.152 0-2.296 0-3.424.096-13.958-54.672-62.17-93.684-118.552-95.928-4.152-.176-8.08-.168-12.32 0-56.303 2.376-104.385 41.393-118.304 96-27.463 2.084-50.546 21.434-57.392 48.112C25.147 207.389.038 234.97.001 267.981c-.005.535.024 1.069.088 1.6.622 25.665 16.506 48.479 40.36 57.968-3.351 20.941 10.91 40.634 31.851 43.984 2.545.407 5.125.557 7.701.448h160c.026 26.499 21.501 47.974 48 48h136c22.091-.026 39.979-17.956 39.952-40.048a39.999 39.999 0 00-25.856-37.368 46.782 46.782 0 00-5.912-12.744 67.718 67.718 0 008.632-2.808 55.08 55.08 0 005.176-2.48zm-203.192 31.448h-162.8c-13.255 0-24-10.745-24-24s10.745-24 24-24c2.07.017 4.131.285 6.136.8a8 8 0 009.864-8.872c.04-13.227 10.773-23.928 24-23.928 2.096-.009 4.183.26 6.208.8a8.001 8.001 0 0010.08-6.96c3.349-35.187 34.589-60.997 69.776-57.648 32.885 3.13 57.985 30.774 57.936 63.808v1.04a8 8 0 0010.168 7.704c1.9-.519 3.863-.77 5.832-.744 13.255 0 24 10.745 24 24 0 .36-.072.696-.096 1.048a55.514 55.514 0 00-10.616 15.248 46.952 46.952 0 00-5.288-.296c-20.322.023-38.427 12.841-45.2 32zm205.2 24c0 13.255-10.745 24-24 24h-136c-17.673.014-32.011-14.302-32.025-31.975-.014-17.673 14.302-32.011 31.975-32.025a32.031 32.031 0 018.299 1.088 8 8 0 009.696-5.296c6.737-21.039 29.254-32.633 50.293-25.896a40.004 40.004 0 0118.723 12.72 8 8 0 008.312 2.608c17.086-4.77 34.804 5.215 39.573 22.301.255.914.469 1.838.643 2.771a8 8 0 006.024 6.4 23.922 23.922 0 0118.487 23.304zm-9.248-69.72a40.514 40.514 0 01-4 1.928 50.23 50.23 0 01-10.28 3.024 27.94 27.94 0 01-3.088.448c-.313 0-.626.024-.936.072-.8.096-1.536.088-2.304.128a47.748 47.748 0 00-34.256-7.2c-17.11-17.426-43.568-21.693-65.288-10.528-4.49-17.674-20.365-30.075-38.6-30.152h-.4c-4.387-43.964-43.583-76.049-87.548-71.662-34.9 3.482-63.463 29.292-70.452 63.662-19.575-.682-36.798 12.827-40.8 32a40.266 40.266 0 00-35.368 20.28 47.92 47.92 0 01-29.352-43.48 8.294 8.294 0 00-.08-1.032c.237-26.619 22.009-48.006 48.628-47.768h.012a8 8 0 007.92-6.88c3.447-23.564 23.625-41.054 47.44-41.12.317-.016.635-.016.952 0a8 8 0 008.848-6.528c10.046-50.362 53.286-87.285 104.6-89.32a127.27 127.27 0 0110.912 0c51.746 1.908 95.315 39.308 105.04 90.168a8 8 0 009.496 6.48 40.726 40.726 0 018.152-.8c22.08.026 39.974 17.92 40 40a8 8 0 008 8c26.406.039 47.837 21.37 48 47.776a8.482 8.482 0 00-.08 1.264 48.162 48.162 0 01-21.96 39.432c-.608.376-1.224.712-1.856 1.072l-1.352.736z"></path>
  </symbol>
  <symbol xmlns="http://www.w3.org/2000/svg" viewBox="0 0 70.7 67.8" id="sun">
    <path fill-rule="evenodd" clip-rule="evenodd" d="M67.8 35.4H59c-.8 0-1.5-.7-1.5-1.5s.7-1.5 1.5-1.5h8.8c.8 0 1.5.7 1.5 1.5-.1.8-.7 1.5-1.5 1.5zM52.4 18.3c-.3.3-.7.4-1 .4-.4 0-.8-.1-1-.4-.6-.6-.6-1.5 0-2.1l6.3-6.3c.6-.6 1.5-.6 2.1 0 .6.6.6 1.5 0 2.1l-6.4 6.3zM25.8 33.9h-2.9c0-5.9 5.5-11.8 12.9-11.8V25c-5.9 0-10 4.5-10 8.9zm26.4 7.7l-2.7-1.2c.9-2 1.3-4.2 1.3-6.5 0-8.9-7.3-16.2-16.2-16.2-8.9 0-16.2 7.3-16.2 16.2s7.3 16.2 16.2 16.2c2.4 0 4.6-.5 6.8-1.5l1.2 2.7c-2.5 1.2-5.2 1.7-8 1.7-10.6 0-19.2-8.6-19.2-19.2S24 14.6 34.6 14.6s19.2 8.6 19.2 19.2c0 2.8-.5 5.3-1.6 7.8zM35.8 11.8c-.8 0-1.5-.7-1.5-1.5V1.5c0-.8.7-1.5 1.5-1.5s1.5.7 1.5 1.5v8.8c0 .8-.7 1.5-1.5 1.5zM18 18.7c-.4 0-.8-.1-1-.4L10.7 12c-.6-.6-.6-1.5 0-2.1.6-.6 1.5-.6 2.1 0l6.3 6.3c.6.6.6 1.5 0 2.1-.3.2-.7.4-1.1.4zm-4.7 15.2c0 .8-.7 1.5-1.5 1.5H2.9c-.8 0-1.5-.7-1.5-1.5s.7-1.5 1.5-1.5h8.8c.9 0 1.6.7 1.6 1.5zM17 49.5c.6-.6 1.5-.6 2.1 0 .6.6.6 1.5 0 2.1l-6.3 6.3c-.3.3-.7.4-1 .4-.4 0-.8-.1-1-.4-.6-.6-.6-1.5 0-2.1l6.2-6.3zM35.8 56c.8 0 1.5.7 1.5 1.5v8.8c0 .8-.7 1.5-1.5 1.5s-1.5-.7-1.5-1.5v-8.8c0-.9.7-1.5 1.5-1.5zm16.6-6.5l6.3 6.3c.6.6.6 1.5 0 2.1-.3.3-.7.4-1 .4s-.8-.1-1-.4l-6.3-6.3c-.6-.6-.6-1.5 0-2.1.5-.6 1.4-.6 2 0z"></path>
  </symbol>
  <symbol xmlns="http://www.w3.org/2000/svg" viewBox="0 0 70.7 67.8" id="clear">
    <path fill-rule="evenodd" clip-rule="evenodd" d="M59.4 61.4H9.3c-2.6 0-4.6-2.1-4.6-4.6V12c0-2.6 2.1-4.6 4.6-4.6h50.1C62 7.4 64 9.5 64 12v44.7c.1 2.6-2 4.7-4.6 4.7zM38.7 10.1H9.3c-1.1 0-1.9.9-1.9 1.9v44.7c0 1.1.9 1.9 1.9 1.9h50c1.1 0 1.9-.9 1.9-1.9V12c0-1.1-.9-1.9-1.9-1.9H38.7zm.8 31.4c-.3.3-.6.4-1 .4-.3 0-.7-.1-1-.4-.5-.5-.5-1.4 0-1.9l4.8-4.8c.5-.5 1.4-.5 1.9 0s.5 1.4 0 1.9l-4.7 4.8zm-21.4-13c-.3.3-.6.4-1 .4s-.7-.1-1-.4c-.5-.5-.5-1.4 0-1.9l8.6-8.6c.5-.5 1.4-.5 1.9 0s.5 1.4 0 1.9l-8.5 8.6zm-2.9-5.6c-.3.3-.6.4-1 .4-.3 0-.7-.1-1-.4-.5-.5-.5-1.4 0-1.9l4.8-4.8c.5-.5 1.4-.5 1.9 0s.5 1.4 0 1.9l-4.7 4.8zm40-8.3c0-.7.6-1.3 1.3-1.3s1.3.6 1.3 1.3v40c0 .7-.6 1.3-1.3 1.3H11.2c-.7 0-1.3-.6-1.3-1.3 0-.7.6-1.3 1.3-1.3h43.9V14.6zM42.3 47.1c-.3.3-.6.4-1 .4s-.7-.1-1-.4c-.5-.5-.5-1.4 0-1.9l8.6-8.6c.5-.5 1.4-.5 1.9 0s.5 1.4 0 1.9l-8.5 8.6z"></path>
  </symbol>
  <symbol xmlns="http://www.w3.org/2000/svg" viewBox="0 0 70.7 67.8" id="star">
    <path fill-rule="evenodd" clip-rule="evenodd" d="M21.5 38.6l-5.9-5.9c-.6-.6-.6-1.5 0-2.1.6-.6 1.5-.6 2.1 0l5.9 5.9c.6.6.6 1.5 0 2.1-.3.3-.7.4-1 .4-.4.1-.8-.1-1.1-.4zm43.6-9.3L54 40.1c-.6.6-1.5.6-2.1 0-.6-.6-.6-1.5 0-2.1l10.7-10.4L44.4 25c-.9-.1-1.6-.7-2-1.4l-8-16.5-8.1 16.4c-.4.8-1.1 1.3-2 1.4L6.2 27.6l13.1 12.8c.6.6.9 1.5.8 2.3L17 60.8l16.2-8.5c.8-.4 1.7-.4 2.4 0l16.2 8.5-7-28.7c-.2-.8.3-1.6 1.1-1.8.8-.2 1.6.3 1.8 1.1l7.2 29.5c.2 1.1-.2 2.1-1 2.7-.5.3-1 .5-1.5.5-.4 0-.8-.1-1.2-.3L34.5 55l-16.7 8.8c-.9.5-1.9.4-2.8-.2-.8-.6-1.2-1.6-1-2.6l3.2-18.5L3.6 29.3c-.7-.7-1-1.7-.7-2.7.3-1 1.1-1.6 2.1-1.8l18.6-2.7L32 5.2c.4-.9 1.3-1.5 2.3-1.5 1 0 1.9.6 2.3 1.5L45 22.1l18.6 2.7c1 .1 1.8.8 2.1 1.8.4.9.1 2-.6 2.7z"></path>
  </symbol>
  <symbol xmlns="http://www.w3.org/2000/svg" viewBox="0 0 70.7 67.8" id="lock">
    <path fill-rule="evenodd" clip-rule="evenodd" d="M50 62.6H18.7c-5.6 0-6.4-3.1-6.4-5V30.8c0-3.2 2.4-5.9 5.5-6.4v-5.9C17.8 8.7 25.5.7 35.1.7c9.6 0 17.4 7.9 17.4 17.7 0 .8-.7 1.5-1.5 1.5s-1.5-.7-1.5-1.5c0-8.2-6.2-14.7-14.3-14.7-8 0-14.4 6.7-14.4 14.8v5.8H50c3.5 0 6.4 2.9 6.4 6.4v26.9c.1 1.9-.8 5-6.4 5zm3.5-31.8c0-1.9-1.6-3.5-3.5-3.5H18.7c-1.9 0-3.5 1.6-3.5 3.5v26.9c0 .8 0 2 3.5 2H50c3.5 0 3.5-1.3 3.5-2V30.8zm-9.6 8.3H26.2c-.8 0-1.5-.7-1.5-1.5s.7-1.5 1.5-1.5h17.7c.8 0 1.5.7 1.5 1.5-.1.8-.7 1.5-1.5 1.5zM29.1 42h11.8c.8 0 1.5.7 1.5 1.5s-.7 1.5-1.5 1.5H29.1c-.8 0-1.5-.7-1.5-1.5.1-.8.7-1.5 1.5-1.5zm3 5.9H38c.8 0 1.5.7 1.5 1.5s-.7 1.5-1.5 1.5h-5.9c-.8 0-1.5-.7-1.5-1.5s.7-1.5 1.5-1.5zM20.3 64.1h29.5c.8 0 1.5.7 1.5 1.5s-.7 1.5-1.5 1.5H20.3c-.8 0-1.5-.7-1.5-1.5s.7-1.5 1.5-1.5z"></path>
  </symbol>
  <symbol xmlns="http://www.w3.org/2000/svg" viewBox="0 0 512 512" id="moldova">
    <path d="M473.655 88.273H341.333v335.448h132.322c21.177 0 38.345-17.167 38.345-38.345V126.618c0-21.178-17.167-38.345-38.345-38.345z" fill="#ff4b55"></path>
    <path fill="#ffe15a" d="M170.67 88.277h170.67v335.45H170.67z"></path>
    <path d="M38.345 88.273C17.167 88.273 0 105.44 0 126.618v258.759c0 21.177 17.167 38.345 38.345 38.345h132.322V88.273H38.345z" fill="#41479b"></path>
    <path fill="#ffcd5a" d="M291.673 312.915l-4.391 3.58-20.011-24.542 4.391-3.58z"></path>
    <path fill="#ffbe5a" d="M282.648 297.397l-8.783 7.155-8.803-10.805 8.784-7.155z"></path>
    <path fill="#ffcd5a" d="M242.795 288.374l4.391 3.58-20.01 24.543-4.392-3.58z"></path>
    <path fill="#ffbe5a" d="M240.592 286.593l8.784 7.155-8.803 10.806-8.783-7.156z"></path>
    <path fill="#ffe15a" d="M250.14 297.584l-14.163 28.326 19.828 14.163v-39.657z"></path>
    <path fill="#ffcd5a" d="M261.471 297.584l14.163 28.326-19.829 14.163v-39.657z"></path>
    <path d="M216.148 297.584v-73.65h8.498v56.653c0 8.497-8.498 16.997-8.498 16.997z" fill="#ffbe5a"></path>
    <path d="M210.482 311.747v-87.814h8.498v70.817c-.001 8.498-8.498 16.997-8.498 16.997z" fill="#ffcd5a"></path>
    <path d="M204.817 323.078v-99.144h8.498v82.148c0 8.497-8.498 16.996-8.498 16.996z" fill="#ffe15a"></path>
    <path d="M224.646 226.766v53.821c0 14.164 20.537 12.275 31.159 22.661 10.623-10.387 31.159-8.498 31.159-22.661v-53.821h-62.318z" fill="#ff4b55"></path>
    <path d="M224.646 257.926v22.662c0 14.164 20.537 12.275 31.159 22.661 10.623-10.387 31.159-8.498 31.159-22.662v-22.662l-62.318.001z" fill="#41479b"></path>
    <g fill="#ffe15a">
      <path d="M255.805 294.75l-8.498-5.665v-2.833l2.833-2.832v-16.997l-8.498-5.665 8.498-11.331h2.832l2.833 2.834 2.833-2.834h2.833l8.498 11.331-8.498 5.665v16.997l2.832 2.832v2.833z"></path>
      <path d="M244.474 229.599s-11.33 2.833-11.33 14.164c0 11.33 11.33 16.996 11.33 16.996l5.665-8.498c-16.996-5.666-5.665-22.662-5.665-22.662zm22.662 0s11.33 2.833 11.33 14.164c0 11.33-11.33 16.996-11.33 16.996l-5.665-8.498c16.995-5.666 5.665-22.662 5.665-22.662z"></path>
      <path d="M227.478 257.926l5.665 2.832 5.666-2.832-5.666-2.833zm45.323 0l5.665 2.832 5.666-2.832-5.666-2.833zm-16.996-26.911l2.06 2.11 2.947-.036-.034 2.948 2.109 2.06-2.109 2.06.034 2.947-2.947-.035-2.06 2.11-2.059-2.11-2.949.035.036-2.947-2.109-2.06 2.109-2.06-.036-2.948 2.949.036zm-19.237 39.282l2.042 2.272 2.84-1.126c1.471-.583 2.851 1.016 2.059 2.386l-1.529 2.645 1.949 2.354c1.009 1.218-.086 3.026-1.633 2.696l-2.988-.638-1.636 2.581c-.847 1.336-2.904.853-3.069-.721l-.318-3.039-2.959-.758c-1.533-.393-1.709-2.498-.264-3.14l2.792-1.24-.193-3.049c-.097-1.582 1.85-2.4 2.907-1.223zm37.729 6.458c.625-3.222 3.283-5.503 6.382-5.847-.636-.342-1.312-.625-2.057-.769a7.318 7.318 0 00-2.786 14.368c.746.145 1.479.136 2.195.056-2.745-1.477-4.358-4.586-3.734-7.808zm-29.823-49.989l5.665-28.327-11.33-8.498 2.833-2.833h5.665s2.833-2.833 8.498-2.833c5.665 0 11.33 2.833 11.33 11.33s2.833 31.159 2.833 31.159h-25.494v.002z"></path>
    </g>
    <path d="M224.646 215.435c-6.258 0-11.33 5.073-11.33 11.33h22.662c-.001-6.257-5.075-11.33-11.332-11.33z" fill="#ffaa5a"></path>
    <path d="M221.813 226.766h-16.996v-18.855a6.64 6.64 0 016.639-6.639h3.718a6.64 6.64 0 016.639 6.639v18.855zm73.65 70.818v-73.65h-8.498v56.653c0 8.497 8.498 16.997 8.498 16.997z" fill="#ffbe5a"></path>
    <path d="M301.128 311.747v-87.814h-8.498v70.817c0 8.498 8.498 16.997 8.498 16.997z" fill="#ffcd5a"></path>
    <path d="M306.794 323.078v-99.144h-8.498v82.148c-.001 8.497 8.498 16.996 8.498 16.996z" fill="#ffe15a"></path>
    <path d="M286.965 215.435c6.258 0 11.33 5.073 11.33 11.33h-22.662c.001-6.257 5.074-11.33 11.332-11.33z" fill="#ffaa5a"></path>
    <path d="M289.798 226.766h16.996v-18.855a6.64 6.64 0 00-6.639-6.639h-3.717a6.64 6.64 0 00-6.639 6.639l-.001 18.855z" fill="#ffbe5a"></path>
    <path fill="#ffaa5a" d="M318.97 256.821l3.63 2.21-39.669 65.142-3.629-2.21z"></path>
    <path fill="#ffe15a" d="M295.078 311.573l-7.075 8.85-6.92-5.532 7.074-8.85z"></path>
    <path fill="#ffcd5a" d="M317.717 256.084l6.05 3.681-8.498 13.961-6.05-3.681z"></path>
    <g fill="#73af00">
      <path d="M194.253 260.052l39.985 61.851-2.38 1.538-39.984-61.851z"></path>
      <path d="M219.413 289.383c-1.016 1.152-1.69 2.899-1.86 4.913-1.397-1.41-3.001-2.308-4.495-2.549-.394 1.461-.234 3.293.479 5.145-1.907-.672-3.775-.775-5.242-.321.413 2.088 2.114 4.354 4.721 5.909 2.606 1.556 5.409 1.976 7.442 1.348l.582-.376c1.407-1.597 2.174-4.324 1.826-7.339-.351-3.015-1.72-5.496-3.453-6.73z"></path>
    </g>
    <circle cx="220.75" cy="303.647" r="2.833" fill="#ff4b55"></circle>
    <path d="M208.648 272.731c-1.016 1.152-1.69 2.899-1.86 4.913-1.397-1.41-3.001-2.308-4.495-2.549-.394 1.461-.234 3.293.479 5.145-1.907-.672-3.775-.775-5.242-.321.413 2.088 2.114 4.354 4.721 5.909 2.606 1.556 5.409 1.976 7.442 1.348l.582-.376c1.407-1.597 2.174-4.324 1.826-7.339-.35-3.016-1.719-5.497-3.453-6.73z" fill="#73af00"></path>
    <circle cx="209.99" cy="286.997" r="2.833" fill="#ff4b55"></circle>
    <path d="M197.884 256.079c-1.016 1.152-1.69 2.899-1.86 4.913-1.397-1.41-3.001-2.308-4.495-2.549-.394 1.461-.234 3.293.479 5.145-1.907-.672-3.775-.775-5.242-.321.413 2.088 2.114 4.354 4.721 5.909 2.606 1.556 5.409 1.976 7.442 1.348l.582-.376c1.407-1.597 2.174-4.324 1.826-7.339-.352-3.016-1.72-5.497-3.453-6.73z" fill="#73af00"></path>
    <circle cx="199.22" cy="270.347" r="2.833" fill="#ff4b55"></circle>
    <g fill="#ffe15a">
      <path d="M226.293 306.052l7.075 8.851-6.921 5.533-7.075-8.85zm12.517-127.435h2.833v19.829h-2.833z"></path>
      <path d="M235.97 181.447h8.498v2.833h-8.498z"></path>
    </g>
    <path fill="#ff875a" d="M238.809 189.941l8.498 6.374v-9.206h-5.665z"></path>
    <path d="M241.642 178.61v2.833h2.833v2.833h-2.833v2.833h5.665s2.833-2.833 8.498-2.833 11.33 2.833 11.33 11.33c0 8.498 2.833 31.159 2.833 31.159h5.665c0-6.258 5.073-11.33 11.33-11.33.984 0 1.922.164 2.833.401v-6.066a8.498 8.498 0 0116.996 0v67.023l3.658-6.009-1.209-.736 8.498-13.962 1.209.736 1.815 1.106 3.025 1.841-8.498 13.962-1.21-.736-7.288 11.974v38.113s-6.764-6.783-8.212-14.287c-1.035-1.33-2.227-3.026-3.276-4.952l-3.242 5.326 3.014 2.409-7.075 8.851-1.879-1.502-3.202 5.261-3.629-2.21 3.485-5.726-1.692-1.353 2.409-3.013-7.433-9.116-2.197 1.79-6.609-8.11c-1.759.707-3.498 1.484-5.171 2.372l13.547 27.095-19.829 14.164-19.829-14.164 13.547-27.095a46.6 46.6 0 00-3.055-1.492l-5.891 7.23-2.197-1.79-7.433 9.116 2.409 3.013-2.406 1.923 3.288 5.086-2.379 1.538-3.133-4.846-2.287 1.828-7.075-8.851 3.179-2.541-1.685-2.607-.119.002c-.926 0-1.833-.413-2.372-1.248a2.77 2.77 0 01-.409-1.135 9.436 9.436 0 01-1.635-.242c-1.053 1.941-2.253 3.65-3.294 4.989-1.447 7.505-8.212 14.287-8.212 14.287v-36.135c-.856-.269-1.719-.611-2.568-1.118-2.606-1.556-4.308-3.822-4.721-5.909a6.658 6.658 0 011.961-.276c1.03 0 2.15.199 3.282.597-.369-.96-.584-1.91-.655-2.81l-2.786-4.31-.119.002c-.926 0-1.833-.413-2.372-1.248a2.787 2.787 0 01-.41-1.135c-1.568-.094-3.286-.574-4.943-1.562-2.606-1.556-4.308-3.822-4.721-5.909a6.663 6.663 0 011.961-.276c1.03 0 2.15.198 3.282.597-.713-1.853-.873-3.684-.479-5.145 1.494.241 3.098 1.139 4.495 2.549.17-2.014.844-3.761 1.859-4.913 1.734 1.234 3.102 3.715 3.45 6.731.222 1.918-.046 3.681-.605 5.15.335.213.638.484.867.84.563.871.543 1.918.113 2.783l2.786 4.31c.108.06.214.132.322.199v-66.321a8.498 8.498 0 0116.996 0v6.066c.91-.236 1.848-.401 2.833-.401 6.258 0 11.33 5.073 11.33 11.33h8.498l5.665-28.327-2.833-2.124-5.665-4.249v6.374h-2.833v-14.164h-2.833v-2.833h2.833v-2.833h2.844m45.467 128.741l1.046-1.309.557.445 4.566-7.501c-.398-1.387-.653-2.81-.653-4.237v-.498c-2.472-3.252-5.665-8.455-5.665-13.666 0 5.966-3.662 9.074-8.674 11.462l4.36 5.351-2.195 1.788 6.658 8.165m-62.345-.1l1.514-1.21 1.046 1.309 6.658-8.167-2.195-1.788 3.605-4.424c-6.051-2.527-10.752-5.623-10.752-12.387 0 3.793-1.693 7.578-3.567 10.616.89 1.306 1.561 2.976 1.785 4.91.222 1.918-.046 3.681-.605 5.15.335.213.638.484.867.84.563.871.543 1.917.113 2.783l1.531 2.368m16.873-130.767h-2.833a2.124 2.124 0 00-2.124 2.124v.708h-.708a2.124 2.124 0 00-2.124 2.124v2.833c0 1.173.951 2.124 2.124 2.124h.708v12.039c0 1.173.951 2.124 2.124 2.124h2.833a2.124 2.124 0 002.124-2.124v-2.124l2.266 1.699 1.761 1.321-5.062 25.306h-4.799c-1.022-6.413-6.591-11.33-13.288-11.33-.235 0-.47.008-.708.022v-3.563c0-5.857-4.766-10.623-10.623-10.623s-10.623 4.766-10.623 10.623v49.575c-.767-2.115-2.014-3.885-3.577-4.998a2.121 2.121 0 00-2.824.325c-.654.743-1.192 1.647-1.593 2.667-.93-.504-1.887-.844-2.831-.996a2.125 2.125 0 00-2.388 1.543c-.249.922-.332 1.934-.254 2.989a10.407 10.407 0 00-.498-.012c-.92 0-1.791.125-2.588.371a2.126 2.126 0 00-1.458 2.442c.55 2.776 2.686 5.514 5.716 7.321a13.39 13.39 0 004.457 1.685 4.853 4.853 0 003.243 2.44l1.548 2.395-.154-.001c-.92 0-1.791.125-2.588.371a2.126 2.126 0 00-1.458 2.442c.55 2.776 2.686 5.514 5.716 7.321.484.289.988.545 1.532.776v34.648a2.124 2.124 0 003.629 1.499c.289-.289 6.952-7.042 8.689-14.879a40.301 40.301 0 001.974-2.834 4.887 4.887 0 002.643 1.565l.092.141-1.678 1.342a2.124 2.124 0 00-.333 2.987l7.075 8.851a2.124 2.124 0 002.986.333l.452-.361 1.857 2.873a2.124 2.124 0 002.937.63l1.374-.888-.311.623a2.125 2.125 0 00.665 2.679l19.829 14.164a2.122 2.122 0 002.47 0l19.829-14.164a2.123 2.123 0 00.665-2.679l-12.597-25.195a53.434 53.434 0 011.674-.753l5.609 6.883a2.122 2.122 0 002.99.304l.551-.448 5.006 6.141-1.338 1.674a2.126 2.126 0 00.333 2.987l.232.185-2.514 4.129a2.125 2.125 0 00.71 2.919l3.629 2.21a2.126 2.126 0 002.921-.711l1.947-3.199a2.125 2.125 0 002.979-.339l7.075-8.851c.26-.326.409-.705.452-1.09 2.308 6.903 7.838 12.507 8.1 12.769a2.127 2.127 0 002.316.464 2.125 2.125 0 001.313-1.963v-37.514l5.937-9.752a2.123 2.123 0 002.252-.976l8.498-13.962a2.116 2.116 0 00.249-1.607 2.131 2.131 0 00-.96-1.313l-3.025-1.841-1.814-1.105-1.212-.737a2.12 2.12 0 00-2.917.712l-7.007 11.512v-56.722c0-5.857-4.766-10.623-10.623-10.623s-10.623 4.766-10.623 10.623v3.563a12.008 12.008 0 00-.708-.022c-6.697 0-12.266 4.917-13.288 11.33h-1.827c-.67-5.577-2.59-22.173-2.59-29.035 0-9.92-6.951-13.455-13.455-13.455-4.817 0-7.925 1.836-9.258 2.833h-.07c.078-.222.121-.46.121-.708v-2.833a2.124 2.124 0 00-2.124-2.124h-.708v-.708a2.13 2.13 0 00-2.129-2.121zM223.55 291.199a30.647 30.647 0 001.426-2.831c1.771 2.377 4.319 4.067 7.031 5.405l-1.86 2.283a2.126 2.126 0 00.304 2.989l.546.446-3.785 4.642a2.126 2.126 0 00-1.551-.122 4.82 4.82 0 00-.981-3.386c.378-1.519.48-3.138.294-4.756a13.364 13.364 0 00-1.424-4.67zm58.029 1.523c1.871-1.091 3.688-2.473 5.066-4.33 1.085 2.477 2.511 4.73 3.861 6.569.017 1.183.179 2.401.491 3.694l-3.225 5.299c-.186.034-.37.094-.543.179l-3.785-4.642.546-.446a2.123 2.123 0 00.304-2.989l-2.715-3.334zm-41.003 13.956c.617 0 1.228-.267 1.649-.782l3.583-4.396-9.697 19.394a1.97 1.97 0 00-.086-.145l-2.244-3.473.905-.724a2.124 2.124 0 00.333-2.986l-1.338-1.674 5.006-6.141.551.448c.391.324.866.479 1.338.479zm54.274 1.993l.462-.76c.406.598.836 1.194 1.288 1.788.04.179.082.356.127.534a2.126 2.126 0 00-.323-.32l-1.554-1.242z" fill="#ffaa5a"></path>
  </symbol>
  <symbol xmlns="http://www.w3.org/2000/svg" viewBox="0 0 550.801 550.801" id="pdf">
    <path d="M160.381 282.225c0-14.832-10.299-23.684-28.474-23.684-7.414 0-12.437.715-15.071 1.432V307.6c3.114.707 6.942.949 12.192.949 19.391 0 31.353-9.809 31.353-26.324zm112.494-23.206c-8.145 0-13.397.717-16.519 1.435v105.523c3.116.729 8.142.729 12.69.729 33.017.231 54.554-17.946 54.554-56.474.242-33.513-19.385-51.213-50.725-51.213z"></path>
    <path d="M488.426 197.019H475.2v-63.816c0-.398-.063-.799-.116-1.202-.021-2.534-.827-5.023-2.562-6.995L366.325 3.694c-.032-.031-.063-.042-.085-.076-.633-.707-1.371-1.295-2.151-1.804a9.495 9.495 0 00-.706-.419 11.131 11.131 0 00-2.131-.896c-.2-.056-.38-.138-.58-.19A10.774 10.774 0 00358.193 0H97.2C85.282 0 75.6 9.693 75.6 21.601v175.413H62.377c-17.049 0-30.873 13.818-30.873 30.873v160.545c0 17.043 13.824 30.87 30.873 30.87h13.224V529.2c0 11.907 9.682 21.601 21.6 21.601h356.4c11.907 0 21.6-9.693 21.6-21.601V419.302h13.226c17.044 0 30.871-13.827 30.871-30.87v-160.54c-.001-17.054-13.828-30.873-30.872-30.873zM97.2 21.605h250.193v110.513c0 5.967 4.841 10.8 10.8 10.8H453.6v54.108H97.2V21.605zm265.159 287.418c0 30.876-11.243 52.165-26.82 65.333-16.971 14.117-42.82 20.814-74.396 20.814-18.9 0-32.297-1.197-41.401-2.389V234.365c13.399-2.149 30.878-3.346 49.304-3.346 30.612 0 50.478 5.508 66.039 17.226 16.743 12.445 27.274 32.302 27.274 60.778zM80.7 393.499V234.365c11.241-1.904 27.042-3.346 49.296-3.346 22.491 0 38.527 4.308 49.291 12.928 10.292 8.131 17.215 21.534 17.215 37.328 0 15.799-5.25 29.198-14.829 38.285-12.442 11.728-30.865 16.996-52.407 16.996-4.778 0-9.1-.243-12.435-.723v57.67H80.7v-.004zm372.901 129.854H97.2V419.302h356.4v104.051zm31.297-261.226h-61.989v36.851h57.913v29.674h-57.913V393.5h-36.593V232.216h98.582v29.911z"></path>
  </symbol>
  <symbol xmlns="http://www.w3.org/2000/svg" viewBox="0 0 482.14 482.14" id="pdf">
    <path d="M142.024 310.194c0-8.007-5.556-12.782-15.359-12.782-4.003 0-6.714.395-8.132.773v25.69c1.679.378 3.743.504 6.588.504 10.449 0 16.903-5.279 16.903-14.185zm60.685-12.513c-4.39 0-7.227.379-8.905.772v56.896c1.679.394 4.39.394 6.841.394 17.809.126 29.424-9.677 29.424-30.449.126-18.063-10.458-27.613-27.36-27.613z"></path>
    <path d="M315.458 0H121.811c-28.29 0-51.315 23.041-51.315 51.315v189.754h-5.012c-11.418 0-20.678 9.251-20.678 20.679v125.404c0 11.427 9.259 20.677 20.678 20.677h5.012v22.995c0 28.305 23.025 51.315 51.315 51.315h264.223c28.272 0 51.3-23.011 51.3-51.315V121.449L315.458 0zM99.053 284.379c6.06-1.024 14.578-1.796 26.579-1.796 12.128 0 20.772 2.315 26.58 6.965 5.548 4.382 9.292 11.615 9.292 20.127 0 8.51-2.837 15.745-7.999 20.646-6.714 6.32-16.643 9.157-28.258 9.157-2.585 0-4.902-.128-6.714-.379v31.096h-19.48v-85.816zm286.981 166.334H121.811c-10.954 0-19.874-8.92-19.874-19.889v-22.995h246.31c11.42 0 20.679-9.25 20.679-20.677V261.748c0-11.428-9.259-20.679-20.679-20.679h-246.31V51.315c0-10.938 8.921-19.858 19.874-19.858l181.89-.19V98.5c0 19.638 15.934 35.587 35.587 35.587l65.862-.189.741 296.925c0 10.97-8.904 19.89-19.857 19.89zm-211.969-80.912v-85.422c7.225-1.15 16.642-1.796 26.58-1.796 16.516 0 27.226 2.963 35.618 9.282 9.031 6.714 14.704 17.416 14.704 32.781 0 16.643-6.06 28.133-14.453 35.224-9.157 7.612-23.096 11.222-40.125 11.222-10.198 0-17.423-.646-22.324-1.291zm140.827-50.575v15.996h-31.23v34.973h-19.74v-86.966h53.16v16.122h-33.42v19.875h31.23z"></path>
  </symbol>
</svg>